<svg width="39" height="48" viewBox="0 0 39 48" fill="none" xmlns="http://www.w3.org/2000/svg">
<path d="M37.7802 16.1715C37.5673 16.3036 32.5011 19.0906 32.5011 25.27C32.7399 32.3173 38.8945 34.7887 39 34.7887C38.8945 34.9208 38.0709 38.1555 35.6312 41.5462C33.695 44.467 31.546 47.4118 28.2828 47.4118C25.1787 47.4118 24.0644 45.4651 20.4827 45.4651C16.6364 45.4651 15.548 47.4118 12.6031 47.4118C9.33985 47.4118 7.03168 44.3092 4.98997 41.4158C2.33748 37.6289 0.0829526 31.6862 0.00336052 25.9801C-0.0502776 22.9564 0.53455 19.9842 2.01911 17.4595C4.11446 13.9351 7.85529 11.5425 11.9404 11.4636C15.0705 11.359 17.8562 13.5938 19.7664 13.5938C21.597 13.5938 25.0195 11.4636 28.8918 11.4636C30.5632 11.4653 35.0204 11.9644 37.7802 16.1715ZM19.5017 10.8599C18.9445 8.09862 20.4827 5.33734 21.9154 3.57595C23.746 1.44582 26.6373 0 29.1306 0C29.2898 2.76128 28.281 5.4694 26.4781 7.44175C24.8603 9.57188 22.0746 11.1755 19.5017 10.8599Z" fill="black"/>
</svg>
