<svg width="22" height="22" viewBox="0 0 22 22" fill="none" xmlns="http://www.w3.org/2000/svg">
<path d="M16 12L12 21C11.2044 21 10.4413 20.6839 9.87868 20.1213C9.31607 19.5587 9 18.7957 9 18V14H3.34C3.05009 14.0033 2.76294 13.9435 2.49843 13.8248C2.23392 13.7061 1.99839 13.5313 1.80814 13.3125C1.6179 13.0937 1.47749 12.8362 1.39666 12.5578C1.31583 12.2793 1.29649 11.9866 1.34 11.7L2.72 2.7C2.79232 2.2231 3.03457 1.7884 3.40209 1.476C3.76962 1.1636 4.23767 0.99455 4.72 1H16M16 12V1M16 12H18.67C19.236 12.01 19.7859 11.8119 20.2154 11.4432C20.6449 11.0745 20.9241 10.5609 21 10V3C20.9241 2.43906 20.6449 1.9255 20.2154 1.55682C19.7859 1.18814 19.236 0.989994 18.67 1H16" stroke="white" stroke-width="2" stroke-linecap="round" stroke-linejoin="round"/>
</svg>
