<svg width="74" height="74" viewBox="0 0 74 74" fill="none" xmlns="http://www.w3.org/2000/svg">
<path fill-rule="evenodd" clip-rule="evenodd" d="M10.0013 62.2998C10.0004 62.2 10 62.1001 10 62C10 45.4315 22.0883 32 37 32C51.9117 32 64 45.4315 64 62C64 62.1001 63.9996 62.2 63.9987 62.2998C70.2015 55.6831 74 46.7851 74 37C74 16.5655 57.4345 0 37 0C16.5655 0 0 16.5655 0 37C0 46.7851 3.79847 55.6831 10.0013 62.2998ZM50 17C50 23.6274 44.4036 29 37.5 29C30.5964 29 25 23.6274 25 17C25 10.3726 30.5964 5 37.5 5C44.4036 5 50 10.3726 50 17Z" fill="#FFF4F4"/>
</svg>
