<svg width="16" height="19" viewBox="0 0 16 19" fill="none" xmlns="http://www.w3.org/2000/svg">
<path d="M9.02088 18.1588L15.1258 12.0538L15.1174 12.0539C15.5287 11.6426 15.66 11.0279 15.4419 10.4959C15.2237 9.96403 14.7097 9.6196 14.1296 9.62459L10.851 9.6528L10.9139 2.33892C10.9249 1.55285 10.2914 0.919439 9.5012 0.926239L6.81104 0.949386C6.02505 0.951947 5.38063 1.59636 5.37384 2.38659L5.3109 9.70047L2.03226 9.72869C1.4522 9.73368 0.93218 10.087 0.704807 10.6228C0.477435 11.1585 0.598256 11.7711 1.00248 12.1753L7.00326 18.1761C7.5575 18.7304 8.45702 18.7226 9.02088 18.1588Z" fill="black"/>
</svg>
