<svg width="31" height="19" viewBox="0 0 31 19" fill="none" xmlns="http://www.w3.org/2000/svg">
<path d="M15.5 5.7C14.3789 5.7 13.3036 6.10036 12.5109 6.81299C11.7181 7.52563 11.2727 8.49218 11.2727 9.5C11.2727 10.5078 11.7181 11.4744 12.5109 12.187C13.3036 12.8996 14.3789 13.3 15.5 13.3C16.6211 13.3 17.6964 12.8996 18.4891 12.187C19.2819 11.4744 19.7273 10.5078 19.7273 9.5C19.7273 8.49218 19.2819 7.52563 18.4891 6.81299C17.6964 6.10036 16.6211 5.7 15.5 5.7ZM15.5 15.8333C13.6314 15.8333 11.8394 15.1661 10.5181 13.9783C9.19683 12.7906 8.45455 11.1797 8.45455 9.5C8.45455 7.8203 9.19683 6.20939 10.5181 5.02166C11.8394 3.83393 13.6314 3.16667 15.5 3.16667C17.3686 3.16667 19.1606 3.83393 20.4819 5.02166C21.8032 6.20939 22.5455 7.8203 22.5455 9.5C22.5455 11.1797 21.8032 12.7906 20.4819 13.9783C19.1606 15.1661 17.3686 15.8333 15.5 15.8333ZM15.5 0C8.45455 0 2.43773 3.93933 0 9.5C2.43773 15.0607 8.45455 19 15.5 19C22.5455 19 28.5623 15.0607 31 9.5C28.5623 3.93933 22.5455 0 15.5 0Z" fill="black"/>
</svg>
