<svg width="35" height="56" viewBox="0 0 35 56" fill="none" xmlns="http://www.w3.org/2000/svg">
<path d="M24.4201 0C20.0178 0 16.2149 1.21366 13.5457 3.61175C10.8764 6.00984 9.42307 9.52466 9.42307 13.8383V19.4783H1.34615C0.989142 19.4783 0.646764 19.6066 0.394319 19.8349C0.141874 20.0632 3.56957e-05 20.3728 0 20.6957V30.4348C3.56957e-05 30.7576 0.141874 31.0673 0.394319 31.2956C0.646764 31.5239 0.989142 31.6521 1.34615 31.6522H9.42307V54.7826C9.42311 55.1055 9.56494 55.4151 9.81739 55.6434C10.0698 55.8717 10.4122 56 10.7692 56H21.5384C21.8955 56 22.2378 55.8717 22.4903 55.6434C22.7427 55.4151 22.8846 55.1055 22.8846 54.7826V31.6522H32.3077C32.6355 31.6522 32.9521 31.5439 33.1981 31.3478C33.444 31.1517 33.6023 30.8811 33.6433 30.587L34.9895 20.8478C35.0133 20.6765 34.9966 20.5025 34.9404 20.3374C34.8841 20.1723 34.7897 20.02 34.6634 19.8904C34.5371 19.7609 34.3817 19.6572 34.2077 19.5861C34.0336 19.515 33.8448 19.4783 33.6538 19.4783H22.8846V14.6087C22.8846 13.2493 24.0737 12.1739 25.5769 12.1739H33.6538C34.0108 12.1739 34.3532 12.0456 34.6057 11.8173C34.8581 11.589 34.9999 11.2794 35 10.9565V1.63825C34.9996 1.34322 34.8807 1.05836 34.6655 0.836632C34.4503 0.614899 34.1534 0.471377 33.83 0.432745C32.6404 0.290008 28.3462 0 24.4201 0ZM24.4201 2.43478C27.7018 2.43478 30.8742 2.67223 32.3077 2.79382V9.73913H25.5769C22.619 9.73913 20.1923 11.9337 20.1923 14.6087V20.6957C20.1923 21.0185 20.3342 21.3281 20.5866 21.5564C20.8391 21.7847 21.1814 21.913 21.5384 21.913H32.1289L31.1193 29.2174H21.5384C21.1814 29.2174 20.8391 29.3457 20.5866 29.574C20.3342 29.8023 20.1923 30.1119 20.1923 30.4348V53.5652H12.1154V30.4348C12.1153 30.1119 11.9735 29.8023 11.7211 29.574C11.4686 29.3457 11.1262 29.2174 10.7692 29.2174H2.69231V21.913H10.7692C11.1262 21.913 11.4686 21.7847 11.7211 21.5564C11.9735 21.3281 12.1153 21.0185 12.1154 20.6957V13.8383C12.1154 10.0101 13.3542 7.21537 15.4439 5.33798C17.5337 3.46059 20.5556 2.43478 24.4201 2.43478Z" fill="white"/>
</svg>
