<svg width="39" height="39" viewBox="0 0 39 39" fill="none" xmlns="http://www.w3.org/2000/svg">
<path d="M39 19.5269C39 17.9563 38.8672 16.8101 38.5799 15.6216H19.8978V22.7105H30.8638C30.6428 24.4722 29.4489 27.1253 26.7958 28.9081L26.7586 29.1454L32.6655 33.5384L33.0748 33.5776C36.8332 30.2453 39 25.3424 39 19.5269Z" fill="#4285F4"/>
<path d="M19.898 38.2045C25.2704 38.2045 29.7806 36.5065 33.0749 33.5776L26.796 28.9081C25.1157 30.033 22.8605 30.8183 19.898 30.8183C14.6361 30.8183 10.1701 27.4861 8.57811 22.8804L8.34476 22.8994L2.20264 27.4627L2.12231 27.6771C5.39441 33.9171 12.1156 38.2045 19.898 38.2045Z" fill="#34A853"/>
<path d="M8.57821 22.8803C8.15814 21.6918 7.91504 20.4182 7.91504 19.1023C7.91504 17.7863 8.15814 16.5129 8.5561 15.3243L8.54498 15.0712L2.32589 10.4346L2.12241 10.5275C0.773823 13.1169 0 16.0248 0 19.1023C0 22.1799 0.773823 25.0876 2.12241 27.677L8.57821 22.8803Z" fill="#FBBC05"/>
<path d="M19.898 7.38612C23.6344 7.38612 26.1547 8.93552 27.5919 10.2303L33.2075 4.96656C29.7586 1.889 25.2704 0 19.898 0C12.1156 0 5.39441 4.28734 2.12231 10.5273L8.55601 15.3242C10.1701 10.7184 14.6361 7.38612 19.898 7.38612Z" fill="#EB4335"/>
</svg>
