<svg width="57" height="56" viewBox="0 0 57 56" fill="none" xmlns="http://www.w3.org/2000/svg">
<path d="M16.5451 0C7.43329 0 0 7.30288 0 16.2548V39.7452C0 48.6971 7.43329 56 16.5451 56H40.4549C49.5667 56 57 48.6971 57 39.7452V16.2548C57 7.30288 49.5667 0 40.4549 0H16.5451ZM16.5451 4.30769H40.4549C47.1946 4.30769 52.6154 9.625 52.6154 16.2548V39.7452C52.6154 46.3666 47.2031 51.6923 40.4549 51.6923H16.5451C9.80544 51.6923 4.38462 46.375 4.38462 39.7452V16.2548C4.38462 9.63341 9.79688 4.30769 16.5451 4.30769ZM44.9423 8.61538C43.1268 8.61538 41.6538 10.0625 41.6538 11.8462C41.6538 13.6298 43.1268 15.0769 44.9423 15.0769C46.7578 15.0769 48.2308 13.6298 48.2308 11.8462C48.2308 10.0625 46.7578 8.61538 44.9423 8.61538ZM28.5 12.9231C20.0476 12.9231 13.1538 19.6959 13.1538 28C13.1538 36.3041 20.0476 43.0769 28.5 43.0769C36.9524 43.0769 43.8462 36.3041 43.8462 28C43.8462 19.6959 36.9524 12.9231 28.5 12.9231ZM28.5 17.2308C34.5802 17.2308 39.4615 22.0264 39.4615 28C39.4615 33.9736 34.5802 38.7692 28.5 38.7692C22.4198 38.7692 17.5385 33.9736 17.5385 28C17.5385 22.0264 22.4198 17.2308 28.5 17.2308Z" fill="white"/>
</svg>
