<svg width="46" height="47" viewBox="0 0 46 47" fill="none" xmlns="http://www.w3.org/2000/svg">
<path d="M45.6055 41.4541L32.8439 28.7694C35.4577 25.1561 36.7646 20.5435 36.0727 15.6233C34.9196 7.39745 28.2312 0.86287 19.8516 0.0940962C8.55062 -1.05906 -1.05905 8.55061 0.0941089 19.9285C0.862883 28.1543 7.39746 34.9964 15.6233 36.1496C20.5435 36.8415 25.0793 35.4577 28.7694 32.9207L41.531 45.6824C42.0692 46.2205 42.9917 46.2205 43.5298 45.6824L45.5286 43.6836C46.1437 42.9917 46.1437 42.0691 45.6055 41.4541ZM5.78304 18.0834C5.78304 11.3182 11.3182 5.70615 18.1603 5.70615C25.0024 5.70615 30.5376 11.2413 30.5376 18.0834C30.5376 24.9255 25.0024 30.4607 18.1603 30.4607C11.3182 30.4607 5.78304 25.0024 5.78304 18.0834Z" fill="white"/>
</svg>
