<svg width="35" height="31" viewBox="0 0 35 31" fill="none" xmlns="http://www.w3.org/2000/svg">
<path d="M0.931206 21.062C1.28037 21.4573 1.70957 21.7739 2.19036 21.9908C2.67115 22.2077 3.19255 22.3199 3.72 22.32L12.0706 22.32V24.8C12.0725 26.4438 12.7263 28.0197 13.8886 29.182C15.0509 30.3443 16.6269 30.9981 18.2706 31C18.5009 31 18.7266 30.9359 18.9225 30.8148C19.1184 30.6938 19.2767 30.5205 19.3797 30.3145L25.237 18.6H31.9106C32.5681 18.5992 33.1985 18.3377 33.6634 17.8728C34.1283 17.4079 34.3899 16.7775 34.3906 16.12L34.3906 2.48C34.3899 1.82249 34.1283 1.19213 33.6634 0.727205C33.1985 0.262278 32.5681 0.000751495 31.9106 0L5.58 0C4.67364 0.00128365 3.79883 0.33288 3.11935 0.932701C2.43987 1.53252 2.00232 2.35944 1.8886 3.25863L0.0286064 18.1386C-0.0366631 18.662 0.0100555 19.1933 0.165665 19.6973C0.321274 20.2013 0.582218 20.6665 0.931206 21.062ZM31.9106 16.12H25.7106L25.7106 2.48H31.9106V16.12ZM2.48953 18.4462L4.34953 3.56621C4.38741 3.26647 4.53326 2.99082 4.75976 2.79087C4.98626 2.59093 5.27787 2.4804 5.58 2.48H23.2306L23.2306 17.0673L17.5403 28.448C16.6977 28.2781 15.9397 27.822 15.3948 27.1572C14.85 26.4924 14.5517 25.6596 14.5506 24.8V21.08C14.5506 20.7511 14.42 20.4357 14.1874 20.2032C13.9549 19.9707 13.6395 19.84 13.3106 19.84L3.72 19.84C3.54417 19.84 3.37034 19.8026 3.21006 19.7303C3.04978 19.6581 2.90671 19.5525 2.79034 19.4207C2.67397 19.2889 2.58697 19.1338 2.53511 18.9658C2.48325 18.7978 2.46771 18.6207 2.48953 18.4462Z" fill="white"/>
</svg>
