<svg width="35" height="31" viewBox="0 0 35 31" fill="none" xmlns="http://www.w3.org/2000/svg">
<path d="M33.4594 9.93801C33.1103 9.54268 32.6811 9.22609 32.2003 9.0092C31.7195 8.79232 31.1981 8.68011 30.6706 8.68H22.32V6.2C22.3181 4.55623 21.6643 2.98032 20.502 1.818C19.3397 0.65568 17.7638 0.00186743 16.12 3.81965e-09C15.8897 -1.80695e-05 15.664 0.0641021 15.4681 0.185173C15.2722 0.306244 15.1139 0.479481 15.0109 0.685466L9.15363 12.4H2.48C1.82249 12.4008 1.19213 12.6623 0.727206 13.1272C0.262278 13.5921 0.000751964 14.2225 0 14.88V28.52C0.000751964 29.1775 0.262278 29.8079 0.727206 30.2728C1.19213 30.7377 1.82249 30.9992 2.48 31H28.8106C29.717 30.9987 30.5918 30.6671 31.2713 30.0673C31.9508 29.4675 32.3883 28.6406 32.502 27.7414L34.362 12.8614C34.4273 12.338 34.3806 11.8067 34.225 11.3027C34.0694 10.7987 33.8084 10.3335 33.4594 9.93801ZM2.48 14.88H8.68V28.52H2.48V14.88ZM31.9011 12.5538L30.0411 27.4338C30.0032 27.7335 29.8574 28.0092 29.6309 28.2091C29.4044 28.4091 29.1128 28.5196 28.8106 28.52H11.16V13.9327L16.8503 2.55198C17.693 2.72193 18.4509 3.17796 18.9958 3.8428C19.5406 4.50765 19.8389 5.34042 19.84 6.2V9.92C19.84 10.2489 19.9707 10.5643 20.2032 10.7968C20.4357 11.0293 20.7511 11.16 21.08 11.16H30.6706C30.8465 11.16 31.0203 11.1974 31.1806 11.2697C31.3408 11.3419 31.4839 11.4475 31.6003 11.5793C31.7167 11.7111 31.8037 11.8662 31.8555 12.0342C31.9074 12.2022 31.9229 12.3793 31.9011 12.5538Z" fill="white"/>
</svg>
