<svg width="16" height="19" viewBox="0 0 16 19" fill="none" xmlns="http://www.w3.org/2000/svg">
<path d="M1.05035 7.1225L7.1553 1.01755C7.71916 0.453687 8.61869 0.445947 9.17293 1.00019L15.1737 7.00097C15.5779 7.40519 15.6988 8.0178 15.4714 8.55354C15.244 9.08929 14.724 9.44262 14.1439 9.44761L10.8653 9.47582L10.8024 16.7897C10.7956 17.5799 10.1511 18.2243 9.36515 18.2269L6.67498 18.2501C5.88475 18.2569 5.25133 17.6234 5.2623 16.8374L5.32523 9.52349L2.03819 9.55178C1.45812 9.55677 0.944107 9.21234 0.725922 8.68042C0.507736 8.14851 0.639118 7.53373 1.05035 7.1225Z" fill="black"/>
</svg>
