<svg width="21" height="21" viewBox="0 0 21 21" fill="none" xmlns="http://www.w3.org/2000/svg">
<path d="M10.5 1.96875C8.81268 1.96875 7.16325 2.4691 5.7603 3.40652C4.35734 4.34395 3.26387 5.67635 2.61816 7.23523C1.97245 8.79411 1.8035 10.5095 2.13268 12.1644C2.46186 13.8193 3.27438 15.3394 4.4675 16.5325C5.66062 17.7256 7.18074 18.5381 8.83564 18.8673C10.4905 19.1965 12.2059 19.0276 13.7648 18.3818C15.3237 17.7361 16.6561 16.6427 17.5935 15.2397C18.5309 13.8368 19.0313 12.1873 19.0313 10.5C19.0289 8.2381 18.1293 6.06954 16.5299 4.47013C14.9305 2.87073 12.7619 1.97114 10.5 1.96875ZM14.2456 8.99555L9.6518 13.5893C9.59085 13.6503 9.51848 13.6987 9.43881 13.7317C9.35914 13.7648 9.27375 13.7818 9.1875 13.7818C9.10126 13.7818 9.01587 13.7648 8.9362 13.7317C8.85653 13.6987 8.78415 13.6503 8.72321 13.5893L6.75446 11.6205C6.63132 11.4974 6.56214 11.3304 6.56214 11.1562C6.56214 10.9821 6.63132 10.8151 6.75446 10.692C6.8776 10.5688 7.04461 10.4996 7.21875 10.4996C7.3929 10.4996 7.55991 10.5688 7.68305 10.692L9.1875 12.1972L13.317 8.06695C13.3779 8.00598 13.4503 7.95761 13.53 7.92462C13.6096 7.89162 13.695 7.87464 13.7813 7.87464C13.8675 7.87464 13.9529 7.89162 14.0325 7.92462C14.1122 7.95761 14.1846 8.00598 14.2456 8.06695C14.3065 8.12792 14.3549 8.20031 14.3879 8.27997C14.4209 8.35964 14.4379 8.44502 14.4379 8.53125C14.4379 8.61748 14.4209 8.70286 14.3879 8.78253C14.3549 8.86219 14.3065 8.93458 14.2456 8.99555Z" fill="#01AB31"/>
</svg>
